<svg xmlns="http://www.w3.org/2000/svg" version="1.1" xmlns:xlink="http://www.w3.org/1999/xlink"
	xmlns:svgjs="http://svgjs.com/svgjs" width="512" height="512" x="0" y="0"
	viewBox="0 0 682.66669 682.66669" style="enable-background:new 0 0 512 512" xml:space="preserve"
	class="hovered-paths"><g>
	<defs id="defs2227">
	  <clipPath clipPathUnits="userSpaceOnUse" id="clipPath2237">
		<path d="M 0,512 H 512 V 0 H 0 Z" id="path2235" fill="#000000" data-original="#000000"></path>
	  </clipPath>
	</defs>
	<g id="g2229" transform="matrix(1.3333333,0,0,-1.3333333,0,682.66667)">
	  <g id="g2231">
		<g id="g2233" clip-path="url(#clipPath2237)">
		  <g id="g2239" transform="translate(424.8447,485.6699)">
			<path d="m 0,0 v -406.17 c 0,0 -353.12,-71.47 -372.71,-71.99 -0.32,-0.01 -0.64,-0.01 -0.96,-0.01 h -0.019 c -9.941,0.01 -18.941,4.03 -25.451,10.54 -6.52,6.52 -10.549,15.52 -10.549,25.46 V 0 c 0,10.4 8.429,18.83 18.83,18.83 H -18.83 C -8.43,18.83 0,10.4 0,0" style="fill-opacity:1;fill-rule:nonzero;stroke:none" id="path2241" fill="#faf7f7" data-original="#faf7f7" class="hovered-path"></path>
		  </g>
		  <g id="g2243" transform="translate(424.8447,112.04)">
			<path d="m 0,0 v -32.54 c 0,0 -353.12,-71.47 -372.71,-71.99 -0.32,-0.01 -0.64,-0.01 -0.96,-0.01 h -0.019 c -9.941,0.01 -18.941,4.03 -25.451,10.54 -6.52,6.52 -10.549,15.52 -10.549,25.46 V 0 Z" style="fill-opacity:1;fill-rule:nonzero;stroke:none" id="path2245" fill="#dedbee" data-original="#dedbee"></path>
		  </g>
		  <g id="g2247" transform="translate(424.8496,227.3999)">
			<path d="M 0,0 V 39.45" style="stroke-width:15;stroke-linecap:round;stroke-linejoin:round;stroke-miterlimit:10;stroke-dasharray:none;stroke-opacity:1" id="path2249" fill="none" stroke="#000000" stroke-width="15" stroke-linecap="round" stroke-linejoin="round" stroke-miterlimit="10" stroke-dasharray="none" stroke-opacity="" data-original="#000000" class=""></path>
		  </g>
		  <g id="g2251" transform="translate(15.1504,425.54)">
			<path d="m 0,0 v 60.13 c 0,10.4 8.43,18.83 18.83,18.83 h 372.039 c 10.401,0 18.83,-8.43 18.83,-18.83 v -183.84" style="stroke-width:15;stroke-linecap:round;stroke-linejoin:round;stroke-miterlimit:10;stroke-dasharray:none;stroke-opacity:1" id="path2253" fill="none" stroke="#000000" stroke-width="15" stroke-linecap="round" stroke-linejoin="round" stroke-miterlimit="10" stroke-dasharray="none" stroke-opacity="" data-original="#000000" class=""></path>
		  </g>
		  <g id="g2255" transform="translate(15.1504,390.5601)">
			<path d="m 0,0 v -311.06 -36" style="stroke-width:15;stroke-linecap:round;stroke-linejoin:round;stroke-miterlimit:10;stroke-dasharray:none;stroke-opacity:1" id="path2257" fill="none" stroke="#000000" stroke-width="15" stroke-linecap="round" stroke-linejoin="round" stroke-miterlimit="10" stroke-dasharray="none" stroke-opacity="" data-original="#000000" class=""></path>
		  </g>
		  <g id="g2259" transform="translate(424.8447,79.5)">
			<path d="M 0,0 V 32.08" style="stroke-width:15;stroke-linecap:round;stroke-linejoin:round;stroke-miterlimit:10;stroke-dasharray:none;stroke-opacity:1" id="path2261" fill="none" stroke="#000000" stroke-width="15" stroke-linecap="round" stroke-linejoin="round" stroke-miterlimit="10" stroke-dasharray="none" stroke-opacity="" data-original="#000000" class=""></path>
		  </g>
		  <g id="g2263" transform="translate(369.7754,138.0569)">
			<path d="m 0,0 c -17.351,0 -31.42,14.07 -31.42,31.43 0,17.36 14.069,31.42 31.42,31.42 17.359,0 31.43,-14.06 31.43,-31.42 C 31.43,14.07 17.359,0 0,0 m 85.479,8.19 -12.79,7.39 c 1.111,5.11 1.71,10.41 1.71,15.85 0,5.44 -0.599,10.74 -1.71,15.85 l 12.79,7.39 c 6.47,3.74 8.691,12.01 4.951,18.49 l -9.071,15.72 c -3.74,6.48 -12.019,8.69 -18.49,4.96 l -12.8,-7.39 C 42.26,93.57 32.92,99.03 22.609,102.32 v 14.76 c 0,7.47 -6.059,13.53 -13.529,13.53 H -9.08 c -7.471,0 -13.53,-6.06 -13.53,-13.53 V 102.32 C -32.92,99.03 -42.261,93.57 -50.07,86.45 l -12.79,7.39 c -6.481,3.73 -14.75,1.52 -18.491,-4.96 l -9.08,-15.72 C -94.17,66.68 -91.95,58.41 -85.48,54.67 l 12.799,-7.39 c -1.109,-5.11 -1.71,-10.41 -1.71,-15.85 0,-5.44 0.601,-10.74 1.71,-15.85 L -85.48,8.19 c -6.47,-3.74 -8.69,-12.02 -4.951,-18.49 l 9.08,-15.72 c 3.741,-6.48 12.01,-8.69 18.491,-4.96 l 12.79,7.39 c 7.809,-7.12 17.15,-12.58 27.46,-15.87 v -14.76 c 0,-7.47 6.059,-13.53 13.53,-13.53 H 9.08 c 7.47,0 13.529,6.06 13.529,13.53 v 14.76 c 10.311,3.29 19.651,8.75 27.46,15.87 l 12.8,-7.39 c 6.471,-3.73 14.75,-1.52 18.49,4.96 l 9.071,15.72 c 3.74,6.47 1.519,14.75 -4.951,18.49" style="fill-opacity:1;fill-rule:nonzero;stroke:none" id="path2265" fill="#7a6d79" data-original="#7a6d79"></path>
		  </g>
		  <g id="g2267" transform="translate(391.6748,79.5)">
			<path d="M 0,0 C 0.46,1.36 0.71,2.82 0.71,4.34 V 19.1 c 10.311,3.29 19.65,8.75 27.46,15.87 l 5,-2.89 7.8,-4.5 c 6.47,-3.73 14.75,-1.52 18.49,4.96 l 9.07,15.72 c 3.741,6.47 1.52,14.75 -4.95,18.49 l -12.79,7.39 c 1.11,5.11 1.71,10.41 1.71,15.85 0,5.44 -0.6,10.74 -1.71,15.85 l 12.79,7.39 c 6.47,3.74 8.691,12.01 4.95,18.49 l -9.07,15.72 c -3.74,6.48 -12.02,8.69 -18.49,4.96 l -7.8,-4.5 -5,-2.89 c -7.81,7.12 -17.149,12.58 -27.46,15.87 v 14.76 c 0,7.47 -6.06,13.53 -13.529,13.53 h -18.16 c -7.471,0 -13.531,-6.06 -13.531,-13.53 v -14.76 c -10.309,-3.29 -19.65,-8.75 -27.46,-15.87 l -12.79,7.39 c -6.48,3.73 -14.75,1.52 -18.49,-4.96 l -9.08,-15.72 c -3.739,-6.48 -1.52,-14.75 4.95,-18.49 l 12.8,-7.39 c -1.109,-5.11 -1.71,-10.41 -1.71,-15.85 0,-5.44 0.601,-10.74 1.71,-15.85 l -12.8,-7.39 c -6.47,-3.74 -8.689,-12.02 -4.95,-18.49 l 9.08,-15.72 c 3.74,-6.48 12.01,-8.69 18.49,-4.96 l 12.79,7.39 c 7.81,-7.12 17.151,-12.58 27.46,-15.87 V 4.34 c 0,-1.52 0.25,-2.98 0.72,-4.34 m 21.891,58.557 c -17.351,0 -31.42,14.07 -31.42,31.43 0,17.36 14.069,31.42 31.42,31.42 17.359,0 31.429,-14.06 31.429,-31.42 0,-17.36 -14.07,-31.43 -31.429,-31.43 z" style="stroke-width:15;stroke-linecap:round;stroke-linejoin:round;stroke-miterlimit:10;stroke-dasharray:none;stroke-opacity:1" id="path2269" fill="none" stroke="#000000" stroke-width="15" stroke-linecap="round" stroke-linejoin="round" stroke-miterlimit="10" stroke-dasharray="none" stroke-opacity="" data-original="#000000" class=""></path>
		  </g>
		  <g id="g2271" transform="translate(478.0117,79.5)">
			<path d="M 0,0 C 10.401,0 18.833,-8.432 18.833,-18.833 V -36 c 0,-9.94 -4.03,-18.94 -10.54,-25.46 C 1.773,-67.97 -7.227,-72 -17.167,-72 h -409.689 c 19.879,0 35.989,16.12 35.989,36 v 17.167 c 0,10.401 8.432,18.833 18.833,18.833 z" style="fill-opacity:1;fill-rule:nonzero;stroke:none" id="path2273" fill="#faf7f7" data-original="#faf7f7" class="hovered-path"></path>
		  </g>
		  <g id="g2275" transform="translate(51.1504,7.5)">
			<path d="M 0,0 H 0.02 170.27" style="stroke-width:15;stroke-linecap:round;stroke-linejoin:round;stroke-miterlimit:10;stroke-dasharray:none;stroke-opacity:1" id="path2277" fill="none" stroke="#000000" stroke-width="15" stroke-linecap="round" stroke-linejoin="round" stroke-miterlimit="10" stroke-dasharray="none" stroke-opacity="" data-original="#000000" class=""></path>
		  </g>
		  <g id="g2279" transform="translate(256.4199,7.5)">
			<path d="m 0,0 h 204.42 c 9.94,0 18.94,4.03 25.46,10.54 6.51,6.52 10.54,15.52 10.54,25.46 v 17.17 c 0,10.4 -8.43,18.83 -18.83,18.83 h -53.17 -318.859 c -10.401,0 -18.841,-8.43 -18.841,-18.83 l 0.01,-16.59 c 0,-19.6 -15.43,-36.05 -35.02,-36.57 C -204.61,0 -204.93,0 -205.25,0 h -0.02 c -9.93,0.01 -18.93,4.03 -25.45,10.54 -6.52,6.52 -10.55,15.52 -10.55,25.46 v 36" style="stroke-width:15;stroke-linecap:round;stroke-linejoin:round;stroke-miterlimit:10;stroke-dasharray:none;stroke-opacity:1" id="path2281" fill="none" stroke="#000000" stroke-width="15" stroke-linecap="round" stroke-linejoin="round" stroke-miterlimit="10" stroke-dasharray="none" stroke-opacity="" data-original="#000000" class=""></path>
		  </g>
		  <g id="g2283" transform="translate(220.4658,408.366)">
			<path d="m 0,0 c 0,0 6.538,-6.579 13.659,-2.627 3.513,1.95 5.634,5.712 5.634,9.731 v 43.771" style="stroke-width:15;stroke-linecap:round;stroke-linejoin:round;stroke-miterlimit:10;stroke-dasharray:none;stroke-opacity:1" id="path2285" fill="none" stroke="#000000" stroke-width="15" stroke-linecap="round" stroke-linejoin="round" stroke-miterlimit="10" stroke-dasharray="none" stroke-opacity="" data-original="#000000" class=""></path>
		  </g>
		  <g id="g2287" transform="translate(288.8506,458.7405)">
			<path d="M 0,0 H -22.865 V -54.265 H 0" style="stroke-width:15;stroke-linecap:round;stroke-linejoin:round;stroke-miterlimit:10;stroke-dasharray:none;stroke-opacity:1" id="path2289" fill="none" stroke="#000000" stroke-width="15" stroke-linecap="round" stroke-linejoin="round" stroke-miterlimit="10" stroke-dasharray="none" stroke-opacity="" data-original="#000000" class=""></path>
		  </g>
		  <g id="g2291" transform="translate(287.1641,431.6077)">
			<path d="M 0,0 H -21.179" style="stroke-width:15;stroke-linecap:round;stroke-linejoin:round;stroke-miterlimit:10;stroke-dasharray:none;stroke-opacity:1" id="path2293" fill="none" stroke="#000000" stroke-width="15" stroke-linecap="round" stroke-linejoin="round" stroke-miterlimit="10" stroke-dasharray="none" stroke-opacity="" data-original="#000000" class=""></path>
		  </g>
		  <g id="g2295" transform="translate(349.9512,454.564)">
			<path d="m 0,0 c -4.37,2.952 -9.639,4.677 -15.31,4.677 -15.123,0 -27.382,-12.26 -27.382,-27.383 0,-15.123 12.259,-27.383 27.382,-27.383 6.142,0 11.194,2.022 15.029,5.437 0.793,0.707 1.534,1.473 2.221,2.293" style="stroke-width:15;stroke-linecap:round;stroke-linejoin:round;stroke-miterlimit:10;stroke-dasharray:none;stroke-opacity:1" id="path2297" fill="none" stroke="#000000" stroke-width="15" stroke-linecap="round" stroke-linejoin="round" stroke-miterlimit="10" stroke-dasharray="none" stroke-opacity="" data-original="#000000" class=""></path>
		  </g>
		  <g id="g2299" transform="translate(371.1895,459.2405)">
			<path d="M 0,0 H 30.244" style="stroke-width:15;stroke-linecap:round;stroke-linejoin:round;stroke-miterlimit:10;stroke-dasharray:none;stroke-opacity:1" id="path2301" fill="none" stroke="#000000" stroke-width="15" stroke-linecap="round" stroke-linejoin="round" stroke-miterlimit="10" stroke-dasharray="none" stroke-opacity="" data-original="#000000" class=""></path>
		  </g>
		  <g id="g2303" transform="translate(386.251,457.4917)">
			<path d="M 0,0 V -53.017" style="stroke-width:15;stroke-linecap:round;stroke-linejoin:round;stroke-miterlimit:10;stroke-dasharray:none;stroke-opacity:1" id="path2305" fill="none" stroke="#000000" stroke-width="15" stroke-linecap="round" stroke-linejoin="round" stroke-miterlimit="10" stroke-dasharray="none" stroke-opacity="" data-original="#000000" class=""></path>
		  </g>
		  <g id="g2307" transform="translate(106.8398,430.6133)">
			<path d="M 0,0 23.005,-26.138" style="stroke-width:15;stroke-linecap:round;stroke-linejoin:round;stroke-miterlimit:10;stroke-dasharray:none;stroke-opacity:1" id="path2309" fill="none" stroke="#000000" stroke-width="15" stroke-linecap="round" stroke-linejoin="round" stroke-miterlimit="10" stroke-dasharray="none" stroke-opacity="" data-original="#000000" class=""></path>
		  </g>
		  <g id="g2311" transform="translate(100.2363,445.0076)">
			<path d="M 0,0 V -40.532" style="stroke-width:15;stroke-linecap:round;stroke-linejoin:round;stroke-miterlimit:10;stroke-dasharray:none;stroke-opacity:1" id="path2313" fill="none" stroke="#000000" stroke-width="15" stroke-linecap="round" stroke-linejoin="round" stroke-miterlimit="10" stroke-dasharray="none" stroke-opacity="" data-original="#000000" class=""></path>
		  </g>
		  <g id="g2315" transform="translate(129.8447,445.0076)">
			<path d="m 0,0 c 0,-7.861 -6.893,-14.233 -15.038,-14.233 -4.04,0 -14.451,-0.063 -14.451,-0.063 0,0 -0.066,10.334 -0.066,14.296 0,3.254 -0.036,14.233 -0.036,14.233 h 14.553 C -6.893,14.233 0,7.861 0,0 Z" style="stroke-width:15;stroke-linecap:round;stroke-linejoin:round;stroke-miterlimit:10;stroke-dasharray:none;stroke-opacity:1" id="path2317" fill="none" stroke="#000000" stroke-width="15" stroke-linecap="round" stroke-linejoin="round" stroke-miterlimit="10" stroke-dasharray="none" stroke-opacity="" data-original="#000000" class=""></path>
		  </g>
		  <g id="g2319" transform="translate(46.5664,443.7856)">
			<path d="M 0,0 V -39.311" style="stroke-width:15;stroke-linecap:round;stroke-linejoin:round;stroke-miterlimit:10;stroke-dasharray:none;stroke-opacity:1" id="path2321" fill="none" stroke="#000000" stroke-width="15" stroke-linecap="round" stroke-linejoin="round" stroke-miterlimit="10" stroke-dasharray="none" stroke-opacity="" data-original="#000000" class=""></path>
		  </g>
		  <g id="g2323" transform="translate(77.5723,443.7856)">
			<path d="m 0,0 c 0,-8.535 -7.222,-15.455 -15.757,-15.455 -4.233,0 -15.143,-0.068 -15.143,-0.068 0,0 -0.069,11.221 -0.069,15.523 0,3.534 -0.037,15.455 -0.037,15.455 h 15.249 C -7.222,15.455 0,8.535 0,0 Z" style="stroke-width:15;stroke-linecap:round;stroke-linejoin:round;stroke-miterlimit:10;stroke-dasharray:none;stroke-opacity:1" id="path2325" fill="none" stroke="#000000" stroke-width="15" stroke-linecap="round" stroke-linejoin="round" stroke-miterlimit="10" stroke-dasharray="none" stroke-opacity="" data-original="#000000" class=""></path>
		  </g>
		  <g id="g2327" transform="translate(204.207,431.8577)">
			<path d="m 0,0 c 0,-15.123 -12.26,-27.383 -27.383,-27.383 -15.123,0 -27.383,12.26 -27.383,27.383 0,15.123 12.26,27.383 27.383,27.383 C -12.26,27.383 0,15.123 0,0 Z" style="stroke-width:15;stroke-linecap:round;stroke-linejoin:round;stroke-miterlimit:10;stroke-dasharray:none;stroke-opacity:1" id="path2329" fill="none" stroke="#000000" stroke-width="15" stroke-linecap="round" stroke-linejoin="round" stroke-miterlimit="10" stroke-dasharray="none" stroke-opacity="" data-original="#000000" class=""></path>
		  </g>
		  <g id="g2331" transform="translate(63.373,374.4595)">
			<path d="M 0,0 H 313.254" style="stroke-width:15;stroke-linecap:round;stroke-linejoin:round;stroke-miterlimit:10;stroke-dasharray:none;stroke-opacity:1" id="path2333" fill="none" stroke="#000000" stroke-width="15" stroke-linecap="round" stroke-linejoin="round" stroke-miterlimit="10" stroke-dasharray="none" stroke-opacity="" data-original="#000000" class=""></path>
		  </g>
		  <g id="g2335" transform="translate(195.8906,230.8015)">
			<path d="m 0,0 h -125.416 c -11.648,0 -21.092,9.444 -21.092,21.093 v 67.553 c 0,11.649 9.444,21.093 21.092,21.093 H 0 c 11.649,0 21.093,-9.444 21.093,-21.093 V 21.093 C 21.093,9.444 11.649,0 0,0" style="fill-opacity:1;fill-rule:nonzero;stroke:none" id="path2337" fill="#ffd15b" data-original="#ffd15b"></path>
		  </g>
		  <g id="g2339" transform="translate(195.8906,230.8015)">
			<path d="m 0,0 h -125.416 c -11.648,0 -21.092,9.444 -21.092,21.093 v 67.553 c 0,11.649 9.444,21.093 21.092,21.093 H 0 c 11.649,0 21.093,-9.444 21.093,-21.093 V 21.093 C 21.093,9.444 11.649,0 0,0 Z" style="stroke-width:15;stroke-linecap:round;stroke-linejoin:round;stroke-miterlimit:10;stroke-dasharray:none;stroke-opacity:1" id="path2341" fill="none" stroke="#000000" stroke-width="15" stroke-linecap="round" stroke-linejoin="round" stroke-miterlimit="10" stroke-dasharray="none" stroke-opacity="" data-original="#000000" class=""></path>
		  </g>
		  <g id="g2343" transform="translate(250.9023,311.6091)">
			<path d="M 0,0 H 139.667" style="stroke-width:15;stroke-linecap:round;stroke-linejoin:round;stroke-miterlimit:10;stroke-dasharray:none;stroke-opacity:1" id="path2345" fill="none" stroke="#000000" stroke-width="15" stroke-linecap="round" stroke-linejoin="round" stroke-miterlimit="10" stroke-dasharray="none" stroke-opacity="" data-original="#000000" class=""></path>
		  </g>
		  <g id="g2347" transform="translate(250.9023,282.678)">
			<path d="M 0,0 H 85.796" style="stroke-width:15;stroke-linecap:round;stroke-linejoin:round;stroke-miterlimit:10;stroke-dasharray:none;stroke-opacity:1" id="path2349" fill="none" stroke="#000000" stroke-width="15" stroke-linecap="round" stroke-linejoin="round" stroke-miterlimit="10" stroke-dasharray="none" stroke-opacity="" data-original="#000000" class=""></path>
		  </g>
		  <g id="g2351" transform="translate(49.3828,196.8826)">
			<path d="M 0,0 H 201.52" style="stroke-width:15;stroke-linecap:round;stroke-linejoin:round;stroke-miterlimit:10;stroke-dasharray:none;stroke-opacity:1" id="path2353" fill="none" stroke="#000000" stroke-width="15" stroke-linecap="round" stroke-linejoin="round" stroke-miterlimit="10" stroke-dasharray="none" stroke-opacity="" data-original="#000000" class=""></path>
		  </g>
		  <g id="g2355" transform="translate(49.3828,139.0203)">
			<path d="M 0,0 H 201.52" style="stroke-width:15;stroke-linecap:round;stroke-linejoin:round;stroke-miterlimit:10;stroke-dasharray:none;stroke-opacity:1" id="path2357" fill="none" stroke="#000000" stroke-width="15" stroke-linecap="round" stroke-linejoin="round" stroke-miterlimit="10" stroke-dasharray="none" stroke-opacity="" data-original="#000000" class=""></path>
		  </g>
		  <g id="g2359" transform="translate(49.3828,109.2603)">
			<path d="M 0,0 H 96.77" style="stroke-width:15;stroke-linecap:round;stroke-linejoin:round;stroke-miterlimit:10;stroke-dasharray:none;stroke-opacity:1" id="path2361" fill="none" stroke="#000000" stroke-width="15" stroke-linecap="round" stroke-linejoin="round" stroke-miterlimit="10" stroke-dasharray="none" stroke-opacity="" data-original="#000000" class=""></path>
		  </g>
		  <path d="M 121.841,284.673 H 75.062 v -29.929 h 46.779 z" style="fill-opacity:1;fill-rule:nonzero;stroke:none" id="path2363" fill="#fe646f" data-original="#fe646f"></path>
		  <path d="m 191.304,312.274 h -46.779 v -57.53 h 46.779 z" style="fill-opacity:1;fill-rule:nonzero;stroke:none" id="path2365" fill="#bbec6c" data-original="#bbec6c"></path>
		  <g id="g2367" transform="translate(49.3828,167.9514)">
			<path d="M 0,0 H 214.488" style="stroke-width:15;stroke-linecap:round;stroke-linejoin:round;stroke-miterlimit:10;stroke-dasharray:none;stroke-opacity:1" id="path2369" fill="none" stroke="#000000" stroke-width="15" stroke-linecap="round" stroke-linejoin="round" stroke-miterlimit="10" stroke-dasharray="none" stroke-opacity="" data-original="#000000" class=""></path>
		  </g>
		  <path d="M 121.841,284.673 H 75.062 v -29.929 h 46.779 z" style="stroke-width:15;stroke-linecap:round;stroke-linejoin:round;stroke-miterlimit:10;stroke-dasharray:none;stroke-opacity:1" id="path2371" fill="none" stroke="#000000" stroke-width="15" stroke-linecap="round" stroke-linejoin="round" stroke-miterlimit="10" stroke-dasharray="none" stroke-opacity="" data-original="#000000" class=""></path>
		  <path d="m 191.304,312.274 h -46.779 v -57.53 h 46.779 z" style="stroke-width:15;stroke-linecap:round;stroke-linejoin:round;stroke-miterlimit:10;stroke-dasharray:none;stroke-opacity:1" id="path2373" fill="none" stroke="#000000" stroke-width="15" stroke-linecap="round" stroke-linejoin="round" stroke-miterlimit="10" stroke-dasharray="none" stroke-opacity="" data-original="#000000" class=""></path>
		</g>
	  </g>
	</g>
  </g></svg>