<svg xmlns="http://www.w3.org/2000/svg" version="1.1" xmlns:xlink="http://www.w3.org/1999/xlink" xmlns:svgjs="http://svgjs.com/svgjs" width="512" height="512" x="0" y="0" viewBox="0 0 512 512" style="enable-background:new 0 0 512 512" xml:space="preserve" class=""><g><path d="m455.957 387.227c9.93-9.929 14.973-22.456 14.584-36.227l-3.63-128.084c-.368-13.053-13.453-24.76-27.438-24.513-6.741.107-28.726 3.716-28.567 45.62l.266 69.578c.004 1.138-.047 2.253-.153 3.347-.289-.316-.589-.628-.897-.938-9.398-9.399-24.792-9.526-35.042-.285-.268.241-.519.5-.752.775-11.194 13.235-24.966 24.842-36.032 34.168-3.888 3.277-7.561 6.372-10.578 9.092-12.797 11.533-14.506 27.37-14.49 41.342l.061 48.996-5.87-.05c-.05 0-.1-.001-.148-.001-4.437 0-8.623 1.716-11.803 4.842-3.216 3.161-5.008 7.375-5.046 11.866l-.167 19.383c-.08 9.292 7.414 16.917 16.707 16.997l100.688.865c.05 0 .1.001.148.001 4.437 0 8.623-1.716 11.803-4.842 3.215-3.16 5.007-7.374 5.046-11.866l.166-19.383c.038-4.491-1.681-8.735-4.841-11.951-3.16-3.215-7.374-5.007-11.866-5.045l-7.739-.066v-8.028zm-47.397 79.948c.116.118.255.318.252.597l-.166 19.383c-.002.279-.144.477-.262.593s-.317.219-.598.252l-100.688-.865c-.454-.004-.849-.406-.845-.86l.167-19.384c.002-.278.144-.475.262-.591.117-.116.314-.252.59-.252h.007.001l100.688.865c.278.002.475.143.592.262zm7.462-123.014c7.545-9.287 11.191-19.303 11.149-30.621l-.266-69.578c-.068-18.106 4.846-29.433 12.823-29.561.05 0 .1-.001.148-.001 5.576 0 10.928 5.011 11.039 8.968l3.63 128.084c.266 9.395-3.066 17.624-9.903 24.46l-57.936 57.936c-1.5 1.5-2.343 3.535-2.343 5.657v11.204l-55.078-.473-.061-49.153c-.018-15.003 2.648-23.532 9.202-29.438 2.821-2.542 6.229-5.416 10.178-8.743 11.398-9.606 25.555-21.538 37.537-35.599 3.959-3.294 9.332-3.313 12.664.02 1.331 1.33 5.339 5.357-.027 12.635-5.904 6.632-12.117 12.649-18.69 19.01-3.162 3.06-6.432 6.224-9.731 9.524-3.124 3.124-3.124 8.189 0 11.313 1.562 1.562 3.609 2.343 5.657 2.343s4.095-.781 5.657-2.343c3.207-3.207 6.429-6.325 9.544-9.34 6.897-6.675 13.412-12.979 19.801-20.187m-97.979 124.186c1.229-3.091 4.731-4.6 7.822-3.372 3.091 1.229 4.601 4.731 3.372 7.822s-4.731 4.601-7.822 3.372c-3.092-1.229-4.601-4.731-3.372-7.822zm-96.502-19.575c-3.215-3.16-7.419-4.902-11.951-4.841l-5.871.05.061-48.997c.016-13.971-1.693-29.808-14.489-41.34-3.019-2.722-6.691-5.816-10.579-9.093-11.066-9.326-24.838-20.933-36.032-34.168-.233-.275-.484-.534-.752-.775-10.247-9.241-25.641-9.115-35.043.285-.309.309-.607.621-.896.937-.107-1.093-.157-2.208-.153-3.346l.266-69.579c.159-41.903-21.825-45.511-28.567-45.619-.132-.002-.264-.003-.396-.003-13.841 0-26.677 11.586-27.042 24.515l-3.632 128.085c-.389 13.771 4.654 26.297 14.583 36.226l55.593 55.592v8.028l-7.74.066c-4.491.039-8.705 1.831-11.865 5.045-3.16 3.215-4.879 7.459-4.841 11.95l.166 19.384c.039 4.492 1.831 8.706 5.046 11.866 3.18 3.126 7.366 4.842 11.802 4.842.05 0 .1 0 .148-.001l100.69-.865c9.292-.08 16.786-7.705 16.706-16.997l-.167-19.381c-.038-4.49-1.83-8.705-5.045-11.866zm-115.553-104.61c6.389 7.208 12.903 13.512 19.801 20.187 3.115 3.016 6.337 6.133 9.544 9.34 1.562 1.562 3.609 2.343 5.657 2.343s4.095-.781 5.657-2.343c3.124-3.124 3.124-8.189 0-11.313-3.3-3.3-6.569-6.464-9.731-9.524-6.573-6.362-12.787-12.379-18.69-19.01-5.366-7.278-1.358-11.305-.028-12.635 3.332-3.333 8.704-3.315 12.665-.021 11.982 14.062 26.139 25.993 37.537 35.599 3.948 3.327 7.356 6.2 10.179 8.744 6.553 5.905 9.219 14.434 9.201 29.437l-.061 49.153-55.078.473v-11.204c0-2.122-.843-4.157-2.343-5.657l-57.937-57.936c-6.836-6.836-10.168-15.065-9.902-24.459l3.63-128.086c.111-3.957 5.462-8.967 11.039-8.967.05 0 .1 0 .148.001 7.979.128 12.892 11.455 12.823 29.561l-.266 69.58c-.042 11.316 3.604 21.333 11.162 30.636m108.914 142.957-100.69.865c-.283.04-.479-.136-.597-.252-.118-.117-.26-.314-.262-.593l-.166-19.384c-.003-.279.136-.479.252-.597.116-.119.313-.26.592-.263l100.689-.865h.001c.299.013.479.136.596.252.118.116.26.313.262.593l.167 19.383c.004.455-.391.857-.844.861zm-5.94-12.671c1.229 3.091-.28 6.593-3.371 7.822s-6.593-.28-7.822-3.372c-1.229-3.091.28-6.593 3.372-7.822 3.09-1.228 6.592.281 7.821 3.372zm61.106-243.37-7.87-3.029c-1.271-4.157-2.938-8.177-4.982-12.019l3.426-7.712c1.343-3.024.686-6.564-1.655-8.904l-13.457-13.457c-2.339-2.34-5.877-2.998-8.903-1.655l-7.716 3.427c-3.841-2.043-7.859-3.709-12.014-4.981l-3.031-7.873c-1.188-3.088-4.156-5.126-7.466-5.126h-19.03c-3.31 0-6.277 2.038-7.466 5.126l-3.031 7.873c-4.154 1.271-8.173 2.938-12.014 4.981l-7.716-3.427c-3.025-1.343-6.565-.685-8.904 1.655l-13.456 13.457c-2.34 2.34-2.997 5.879-1.654 8.904l3.426 7.714c-2.044 3.842-3.71 7.861-4.981 12.017l-7.872 3.03c-3.088 1.188-5.126 4.156-5.126 7.466v19.031c0 3.31 2.038 6.277 5.126 7.466l7.87 3.029c1.271 4.157 2.938 8.178 4.982 12.02l-3.425 7.711c-1.343 3.024-.686 6.564 1.655 8.904l13.457 13.457c2.34 2.341 5.88 2.999 8.903 1.654l7.715-3.426c3.842 2.044 7.86 3.71 12.015 4.981l3.03 7.872c1.188 3.088 4.156 5.126 7.466 5.126h19.03c3.31 0 6.277-2.038 7.466-5.126l3.029-7.87c4.157-1.272 8.178-2.938 12.02-4.983l7.712 3.425c3.024 1.341 6.562.686 8.904-1.655l13.457-13.457c2.34-2.34 2.997-5.879 1.654-8.904l-3.427-7.715c2.043-3.841 3.709-7.86 4.98-12.014l7.873-3.03c3.088-1.188 5.126-4.156 5.126-7.466v-19.031c0-3.31-2.038-6.277-5.126-7.466zm-10.874 21.004-6.525 2.511c-2.461.948-4.298 3.048-4.908 5.614-1.281 5.38-3.405 10.504-6.314 15.229-1.383 2.247-1.569 5.031-.499 7.442l2.842 6.397-5.688 5.688-6.395-2.84c-2.409-1.07-5.194-.885-7.442.5-4.723 2.909-9.848 5.033-15.231 6.314-2.566.611-4.667 2.447-5.614 4.909l-2.511 6.522h-8.045l-2.512-6.525c-.947-2.462-3.048-4.298-5.614-4.909-5.38-1.28-10.503-3.404-15.229-6.313-2.248-1.384-5.032-1.57-7.441-.499l-6.397 2.841-5.688-5.688 2.84-6.394c1.071-2.412.884-5.196-.5-7.443-2.909-4.722-5.033-9.847-6.315-15.231-.61-2.566-2.446-4.667-4.908-5.614l-6.522-2.511v-8.045l6.524-2.511c2.462-.947 4.298-3.047 4.908-5.614 1.281-5.382 3.405-10.506 6.314-15.229 1.384-2.247 1.57-5.031.5-7.442l-2.841-6.397 5.688-5.688 6.397 2.841c2.409 1.069 5.195.884 7.441-.5 4.724-2.909 9.848-5.033 15.229-6.313 2.565-.611 4.666-2.447 5.613-4.909l2.512-6.525h8.046l2.512 6.525c.947 2.461 3.048 4.298 5.613 4.909 5.381 1.281 10.505 3.405 15.229 6.313 2.248 1.384 5.032 1.569 7.441.5l6.398-2.842 5.688 5.689-2.84 6.395c-1.07 2.411-.884 5.195.5 7.442 2.908 4.724 5.033 9.849 6.314 15.232.61 2.566 2.446 4.666 4.908 5.614l6.522 2.511zm-62.31-45.212c-22.711 0-41.188 18.478-41.188 41.189s18.478 41.189 41.188 41.189c22.713 0 41.19-18.478 41.19-41.189s-18.477-41.189-41.19-41.189zm0 66.379c-13.889 0-25.188-11.3-25.188-25.189 0-13.89 11.3-25.189 25.188-25.189 13.89 0 25.19 11.3 25.19 25.189s-11.301 25.189-25.19 25.189zm110.68-18.753 7.716-3.427c3.842 2.044 7.859 3.71 12.014 4.981l3.031 7.873c1.188 3.088 4.156 5.126 7.466 5.126h19.03c3.31 0 6.277-2.038 7.466-5.126l3.029-7.87c4.156-1.271 8.177-2.938 12.02-4.983l7.712 3.425c3.024 1.343 6.564.686 8.904-1.654l13.456-13.457c2.34-2.34 2.997-5.879 1.654-8.904l-3.427-7.716c2.044-3.842 3.71-7.86 4.981-12.014l7.873-3.031c3.088-1.188 5.126-4.156 5.126-7.466v-19.029c0-3.31-2.038-6.277-5.127-7.466l-7.869-3.028c-1.271-4.156-2.938-8.177-4.982-12.02l3.425-7.712c1.343-3.024.686-6.564-1.655-8.904l-13.457-13.457c-2.34-2.341-5.877-3-8.903-1.654l-7.715 3.426c-3.842-2.044-7.86-3.71-12.015-4.981l-3.03-7.873c-1.188-3.088-4.156-5.126-7.466-5.126h-19.03c-3.31 0-6.277 2.038-7.466 5.126l-3.031 7.873c-4.153 1.271-8.172 2.938-12.015 4.981l-7.715-3.426c-3.025-1.344-6.564-.686-8.903 1.654l-13.457 13.457c-2.341 2.34-2.998 5.879-1.655 8.904l3.427 7.714c-2.045 3.843-3.711 7.862-4.982 12.017l-7.871 3.03c-3.088 1.188-5.126 4.156-5.126 7.466v19.03c0 3.31 2.038 6.277 5.126 7.466l7.87 3.029c1.271 4.157 2.938 8.177 4.981 12.019l-3.425 7.712c-1.343 3.024-.686 6.564 1.654 8.904l13.457 13.457c2.342 2.339 5.878 2.999 8.904 1.654zm-4.823-36.377c-2.908-4.724-5.033-9.848-6.314-15.232-.61-2.566-2.446-4.667-4.908-5.614l-6.522-2.511v-8.045l6.524-2.511c2.462-.948 4.299-3.048 4.909-5.615 1.279-5.379 3.403-10.503 6.313-15.229 1.383-2.247 1.569-5.03.499-7.441l-2.841-6.396 5.688-5.688 6.397 2.841c2.409 1.071 5.193.885 7.441-.499 4.727-2.91 9.851-5.034 15.229-6.314 2.565-.611 4.666-2.447 5.613-4.909l2.512-6.525h8.045l2.512 6.525c.947 2.462 3.048 4.298 5.613 4.909 5.381 1.28 10.505 3.405 15.229 6.314 2.248 1.384 5.032 1.57 7.441.499l6.397-2.841 5.688 5.688-2.84 6.394c-1.07 2.411-.884 5.195.5 7.442 2.91 4.726 5.034 9.851 6.313 15.231.61 2.567 2.447 4.668 4.91 5.616l6.522 2.51v8.045l-6.525 2.512c-2.462.947-4.298 3.047-4.908 5.614-1.28 5.377-3.405 10.501-6.314 15.229-1.383 2.246-1.569 5.03-.499 7.44l2.841 6.397-5.688 5.689-6.395-2.84c-2.408-1.071-5.194-.885-7.442.5-4.724 2.91-9.849 5.034-15.232 6.314-2.566.61-4.667 2.447-5.614 4.909l-2.511 6.522h-8.045l-2.512-6.525c-.947-2.461-3.048-4.298-5.613-4.909-5.38-1.28-10.503-3.405-15.229-6.314-2.248-1.384-5.032-1.57-7.441-.499l-6.398 2.841-5.688-5.689 2.84-6.394c1.073-2.41.887-5.195-.497-7.441zm44.565 13.809c22.712 0 41.189-18.478 41.189-41.189 0-22.712-18.478-41.189-41.189-41.189s-41.188 18.478-41.188 41.189c-.001 22.712 18.477 41.189 41.188 41.189zm0-66.378c13.89 0 25.189 11.3 25.189 25.189s-11.3 25.189-25.189 25.189-25.188-11.3-25.188-25.189c-.001-13.889 11.299-25.189 25.188-25.189zm-205.963-62.274 7.87 3.029c1.272 4.159 2.939 8.179 4.982 12.02l-3.425 7.711c-1.343 3.024-.686 6.563 1.654 8.904l13.456 13.457c2.341 2.34 5.879 2.997 8.904 1.655l7.716-3.427c3.841 2.043 7.86 3.709 12.015 4.981l3.03 7.873c1.188 3.088 4.156 5.126 7.466 5.126h19.03c3.31 0 6.277-2.038 7.466-5.126l3.029-7.87c4.157-1.271 8.178-2.938 12.02-4.983l7.712 3.425c3.023 1.343 6.562.686 8.904-1.654l13.457-13.457c2.34-2.34 2.997-5.879 1.654-8.904l-3.428-7.715c2.044-3.841 3.71-7.859 4.981-12.014l7.873-3.03c3.088-1.188 5.126-4.156 5.126-7.466v-19.03c0-3.31-2.038-6.277-5.126-7.466l-7.869-3.029c-1.272-4.157-2.939-8.178-4.983-12.02l3.426-7.711c1.343-3.024.686-6.564-1.655-8.904l-13.457-13.457c-2.34-2.34-5.877-2.997-8.903-1.655l-7.716 3.427c-3.842-2.044-7.859-3.71-12.014-4.981l-3.031-7.873c-1.188-3.09-4.155-5.128-7.465-5.128h-19.03c-3.31 0-6.277 2.038-7.466 5.126l-3.031 7.873c-4.154 1.271-8.172 2.938-12.014 4.981l-7.716-3.427c-3.025-1.342-6.564-.685-8.904 1.655l-13.456 13.457c-2.34 2.34-2.997 5.879-1.654 8.904l3.426 7.714c-2.044 3.842-3.71 7.861-4.981 12.017l-7.872 3.03c-3.088 1.188-5.126 4.156-5.126 7.466v19.031c-.001 3.309 2.037 6.277 5.125 7.465zm10.874-21.004 6.524-2.511c2.462-.947 4.298-3.047 4.908-5.614 1.281-5.382 3.405-10.506 6.314-15.229 1.384-2.247 1.57-5.031.5-7.442l-2.841-6.397 5.688-5.688 6.397 2.841c2.409 1.07 5.195.884 7.441-.5 4.725-2.909 9.849-5.033 15.228-6.313 2.566-.611 4.667-2.447 5.614-4.909l2.514-6.526h8.046l2.512 6.525c.947 2.462 3.048 4.298 5.614 4.909 5.379 1.28 10.503 3.404 15.228 6.313 2.248 1.384 5.032 1.569 7.441.5l6.398-2.842 5.688 5.688-2.841 6.394c-1.071 2.412-.884 5.196.5 7.443 2.909 4.722 5.034 9.847 6.315 15.232.61 2.566 2.446 4.666 4.908 5.614l6.522 2.511v8.045l-6.525 2.512c-2.462.947-4.298 3.047-4.908 5.613-1.281 5.38-3.405 10.504-6.314 15.229-1.383 2.247-1.569 5.031-.499 7.442l2.842 6.397-5.688 5.688-6.395-2.84c-2.409-1.071-5.194-.885-7.442.5-4.724 2.909-9.849 5.034-15.231 6.314-2.566.61-4.667 2.447-5.614 4.909l-2.511 6.523h-8.045l-2.512-6.525c-.947-2.462-3.048-4.298-5.613-4.909-5.382-1.281-10.506-3.405-15.229-6.313-2.248-1.384-5.032-1.569-7.441-.5l-6.397 2.841-5.688-5.688 2.84-6.394c1.071-2.412.884-5.196-.5-7.443-2.907-4.72-5.032-9.845-6.315-15.233-.611-2.566-2.447-4.666-4.908-5.613l-6.522-2.511v-8.043zm62.31 45.212c22.711 0 41.188-18.477 41.188-41.188 0-22.712-18.478-41.19-41.188-41.19-22.712 0-41.189 18.478-41.189 41.19 0 22.71 18.477 41.188 41.189 41.188zm0-66.379c13.889 0 25.188 11.3 25.188 25.19 0 13.889-11.3 25.188-25.188 25.188-13.89 0-25.189-11.299-25.189-25.188 0-13.89 11.3-25.19 25.189-25.19z" fill="#000000" data-original="#000000"></path></g></svg>